<?xml version="1.0" encoding="UTF-8" standalone="no"?>
<svg
   xmlns:dc="http://purl.org/dc/elements/1.1/"
   xmlns:cc="http://creativecommons.org/ns#"
   xmlns:rdf="http://www.w3.org/1999/02/22-rdf-syntax-ns#"
   xmlns:svg="http://www.w3.org/2000/svg"
   xmlns="http://www.w3.org/2000/svg"
   xmlns:xlink="http://www.w3.org/1999/xlink"
   xmlns:sodipodi="http://sodipodi.sourceforge.net/DTD/sodipodi-0.dtd"
   xmlns:inkscape="http://www.inkscape.org/namespaces/inkscape"
   width="1784.386"
   height="684.00024"
   viewBox="0 0 472.11878 180.97506"
   version="1.1"
   id="svg8"
   sodipodi:docname="Privacidade.Digital-light-logo-vertical.svg"
   inkscape:version="1.0.1 (3bc2e813f5, 2020-09-07)">
  <defs
     id="defs2">
    <rect
       x="3.4741328"
       y="6.4196892"
       width="291.39038"
       height="44.057819"
       id="rect12" />
    <linearGradient
       inkscape:collect="always"
       id="linearGradient158">
      <stop
         style="stop-color:#007c00;stop-opacity:1"
         offset="0"
         id="stop154" />
      <stop
         style="stop-color:#e0fc00;stop-opacity:1"
         offset="1"
         id="stop156" />
    </linearGradient>
    <linearGradient
       inkscape:collect="always"
       xlink:href="#linearGradient158"
       id="linearGradient160"
       x1="0.023385435"
       y1="0.021558177"
       x2="132.68532"
       y2="132.40068"
       gradientUnits="userSpaceOnUse"
       gradientTransform="matrix(0.99720891,0,0,0.99933939,-0.02332282,-0.02154652)" />
  </defs>
  <sodipodi:namedview
     id="base"
     pagecolor="#ffffff"
     bordercolor="#666666"
     borderopacity="1.0"
     inkscape:pageopacity="0.0"
     inkscape:pageshadow="2"
     inkscape:zoom="0.7"
     inkscape:cx="883.11735"
     inkscape:cy="437.27778"
     inkscape:document-units="mm"
     inkscape:current-layer="layer1"
     inkscape:document-rotation="0"
     showgrid="false"
     units="px"
     inkscape:window-width="3840"
     inkscape:window-height="2123"
     inkscape:window-x="0"
     inkscape:window-y="0"
     inkscape:window-maximized="1"
     inkscape:pagecheckerboard="true"
     fit-margin-top="0"
     fit-margin-left="0"
     fit-margin-right="0"
     fit-margin-bottom="0" />
  <metadata
     id="metadata5">
    <rdf:RDF>
      <cc:Work
         rdf:about="">
        <dc:format>image/svg+xml</dc:format>
        <dc:type
           rdf:resource="http://purl.org/dc/dcmitype/StillImage" />
        <dc:title></dc:title>
      </cc:Work>
    </rdf:RDF>
  </metadata>
  <g
     inkscape:label="Layer 1"
     inkscape:groupmode="layer"
     id="layer1"
     transform="translate(-37.852402)">
    <g
       aria-label="Privacidade.Digital"
       transform="matrix(1.6781306,0,0,1.6781306,27.759102,109.30182)"
       id="text10"
       style="font-style:normal;font-weight:bold;font-size:31.75px;line-height:1.25;font-family:sans-serif;white-space:pre;shape-inside:url(#rect12);fill:#666666;fill-opacity:1;stroke:none">
      <path
         d="m 10.777109,27.533672 v 8.255 H 6.0146094 V 12.642922 H 16.238109 q 3.6195,0 5.5245,1.8415 1.93675,1.8415 1.93675,5.334 0,3.52425 -1.905,5.61975 -1.905,2.0955 -5.08,2.0955 z m 0,-3.96875 h 4.445 q 3.71475,0 3.71475,-3.46075 0,-1.778 -0.92075,-2.63525 -0.889,-0.85725 -2.794,-0.85725 h -4.445 z"
         style="font-style:normal;font-variant:normal;font-weight:600;font-stretch:normal;font-size:31.75px;font-family:FreeSans;-inkscape-font-specification:'FreeSans Semi-Bold';fill:#666666;fill-opacity:1"
         id="path876" />
      <path
         d="m 27.033049,18.643672 h 4.445 v 3.3655 q 0.6985,-1.74625 1.9685,-2.69875 1.27,-0.9525 2.794,-0.9525 0.28575,0 0.53975,0.03175 v 4.5085 q -0.79375,-0.127 -1.397,-0.127 -3.90525,0 -3.90525,3.90525 v 9.11225 h -4.445 z"
         style="font-style:normal;font-variant:normal;font-weight:600;font-stretch:normal;font-size:31.75px;font-family:FreeSans;-inkscape-font-specification:'FreeSans Semi-Bold';fill:#666666;fill-opacity:1"
         id="path878" />
      <path
         d="m 44.082745,18.643672 v 17.145 h -4.445 v -17.145 z m 0,-6.00075 v 3.96875 h -4.445 v -3.96875 z"
         style="font-style:normal;font-variant:normal;font-weight:600;font-stretch:normal;font-size:31.75px;font-family:FreeSans;-inkscape-font-specification:'FreeSans Semi-Bold';fill:#666666;fill-opacity:1"
         id="path880" />
      <path
         d="m 57.290706,35.788672 h -4.66725 l -6.00075,-17.145 h 4.699 l 3.71475,12.54125 3.46075,-12.54125 h 4.699 z"
         style="font-style:normal;font-variant:normal;font-weight:600;font-stretch:normal;font-size:31.75px;font-family:FreeSans;-inkscape-font-specification:'FreeSans Semi-Bold';fill:#666666;fill-opacity:1"
         id="path882" />
      <path
         d="m 69.990702,36.518922 q -2.3495,0 -3.77825,-1.397 -1.42875,-1.42875 -1.42875,-3.7465 0,-4.54025 5.04825,-5.3975 l 1.778,-0.3175 q 0.0635,0 0.635,-0.0635 0.5715,-0.09525 0.73025,-0.127 0.15875,-0.0635 0.60325,-0.15875 0.47625,-0.09525 0.66675,-0.22225 0.1905,-0.127 0.4445,-0.3175 0.28575,-0.22225 0.381,-0.47625 0.09525,-0.28575 0.09525,-0.635 0,-1.7145 -2.57175,-1.7145 -1.651,0 -2.31775,0.508 -0.66675,0.508 -0.8255,1.8415 h -4.28625 q 0.41275,-5.93725 7.33425,-5.93725 7.01675,0 7.01675,5.2705 v 9.525 q 0,1.17475 1.016,2.0955 v 0.53975 h -4.826 q -0.508,-0.635 -0.508,-1.7145 -1.17475,1.2065 -2.4765,1.80975 -1.30175,0.635 -2.7305,0.635 z m 5.17525,-7.62 v -1.2065 q -0.60325,0.28575 -1.87325,0.53975 l -1.524,0.28575 q -1.397,0.28575 -1.9685,0.8255 -0.5715,0.53975 -0.5715,1.524 0,0.9525 0.635,1.524 0.66675,0.53975 1.778,0.53975 1.68275,0 2.6035,-1.04775 0.92075,-1.04775 0.92075,-2.9845 z"
         style="font-style:normal;font-variant:normal;font-weight:600;font-stretch:normal;font-size:31.75px;font-family:FreeSans;-inkscape-font-specification:'FreeSans Semi-Bold';fill:#666666;fill-opacity:1"
         id="path884" />
      <path
         d="m 90.8187,21.945672 q -3.6195,0 -3.6195,5.61975 0,2.50825 0.9525,3.937 0.98425,1.42875 2.667,1.42875 1.30175,0 2.032,-0.6985 0.73025,-0.73025 1.143,-2.38125 h 4.2545 q -0.3175,3.07975 -2.3495,4.8895 -2.00025,1.778 -5.11175,1.778 -2.54,0 -4.34975,-1.04775 -1.778,-1.0795 -2.7305,-3.07975 -0.9525,-2.00025 -0.9525,-4.826 0,-4.3815 2.12725,-6.7945 2.12725,-2.413 5.969,-2.413 3.20675,0 5.17525,1.778 2.00025,1.778 2.2225,4.92125 h -4.2545 q -0.381,-1.68275 -1.11125,-2.38125 -0.6985,-0.73025 -2.06375,-0.73025 z"
         style="font-style:normal;font-variant:normal;font-weight:600;font-stretch:normal;font-size:31.75px;font-family:FreeSans;-inkscape-font-specification:'FreeSans Semi-Bold';fill:#666666;fill-opacity:1"
         id="path886" />
      <path
         d="m 105.86815,18.643672 v 17.145 h -4.445 v -17.145 z m 0,-6.00075 v 3.96875 h -4.445 v -3.96875 z"
         style="font-style:normal;font-variant:normal;font-weight:600;font-stretch:normal;font-size:31.75px;font-family:FreeSans;-inkscape-font-specification:'FreeSans Semi-Bold';fill:#666666;fill-opacity:1"
         id="path888" />
      <path
         d="m 116.56787,36.518922 q -3.175,0 -5.207,-2.6035 -2.00025,-2.6035 -2.00025,-6.44525 0,-3.8735 2.06375,-6.477 2.06375,-2.63525 5.1435,-2.63525 3.1115,0 4.73075,2.50825 v -8.22325 h 4.445 v 23.14575 h -4.445 v -1.74625 q -0.8255,1.27 -2.00025,1.87325 -1.143,0.60325 -2.7305,0.60325 z m 0.98425,-14.44625 q -1.651,0 -2.69875,1.524 -1.04775,1.49225 -1.04775,3.8735 0,2.3495 1.04775,3.84175 1.04775,1.49225 2.69875,1.49225 1.651,0 2.69875,-1.4605 1.04775,-1.4605 1.04775,-3.81 0,-2.44475 -1.04775,-3.937 -1.016,-1.524 -2.69875,-1.524 z"
         style="font-style:normal;font-variant:normal;font-weight:600;font-stretch:normal;font-size:31.75px;font-family:FreeSans;-inkscape-font-specification:'FreeSans Semi-Bold';fill:#666666;fill-opacity:1"
         id="path890" />
      <path
         d="m 134.28431,36.518922 q -2.3495,0 -3.77825,-1.397 -1.42875,-1.42875 -1.42875,-3.7465 0,-4.54025 5.04825,-5.3975 l 1.778,-0.3175 q 0.0635,0 0.635,-0.0635 0.5715,-0.09525 0.73025,-0.127 0.15875,-0.0635 0.60325,-0.15875 0.47625,-0.09525 0.66675,-0.22225 0.1905,-0.127 0.4445,-0.3175 0.28575,-0.22225 0.381,-0.47625 0.0953,-0.28575 0.0953,-0.635 0,-1.7145 -2.57175,-1.7145 -1.651,0 -2.31775,0.508 -0.66675,0.508 -0.8255,1.8415 h -4.28625 q 0.41275,-5.93725 7.33425,-5.93725 7.01675,0 7.01675,5.2705 v 9.525 q 0,1.17475 1.016,2.0955 v 0.53975 h -4.826 q -0.508,-0.635 -0.508,-1.7145 -1.17475,1.2065 -2.4765,1.80975 -1.30175,0.635 -2.7305,0.635 z m 5.17525,-7.62 v -1.2065 q -0.60325,0.28575 -1.87325,0.53975 l -1.524,0.28575 q -1.397,0.28575 -1.9685,0.8255 -0.5715,0.53975 -0.5715,1.524 0,0.9525 0.635,1.524 0.66675,0.53975 1.778,0.53975 1.68275,0 2.6035,-1.04775 0.92075,-1.04775 0.92075,-2.9845 z"
         style="font-style:normal;font-variant:normal;font-weight:600;font-stretch:normal;font-size:31.75px;font-family:FreeSans;-inkscape-font-specification:'FreeSans Semi-Bold';fill:#666666;fill-opacity:1"
         id="path892" />
      <path
         d="m 154.25507,36.518922 q -3.175,0 -5.207,-2.6035 -2.00025,-2.6035 -2.00025,-6.44525 0,-3.8735 2.06375,-6.477 2.06375,-2.63525 5.1435,-2.63525 3.1115,0 4.73075,2.50825 v -8.22325 h 4.445 v 23.14575 h -4.445 v -1.74625 q -0.8255,1.27 -2.00025,1.87325 -1.143,0.60325 -2.7305,0.60325 z m 0.98425,-14.44625 q -1.651,0 -2.69875,1.524 -1.04775,1.49225 -1.04775,3.8735 0,2.3495 1.04775,3.84175 1.04775,1.49225 2.69875,1.49225 1.651,0 2.69875,-1.4605 1.04775,-1.4605 1.04775,-3.81 0,-2.44475 -1.04775,-3.937 -1.016,-1.524 -2.69875,-1.524 z"
         style="font-style:normal;font-variant:normal;font-weight:600;font-stretch:normal;font-size:31.75px;font-family:FreeSans;-inkscape-font-specification:'FreeSans Semi-Bold';fill:#666666;fill-opacity:1"
         id="path894" />
      <path
         d="m 174.70201,18.357922 q 1.11125,0 2.159,0.254 1.04775,0.254 2.12725,0.92075 1.11125,0.66675 1.905,1.7145 0.8255,1.016 1.3335,2.7305 0.508,1.68275 0.508,3.8735 0,0.381 -0.0317,0.762 h -11.4935 q 0.0318,0.98425 0.15875,1.7145 0.15875,0.6985 0.508,1.397 0.381,0.66675 1.0795,1.04775 0.73025,0.34925 1.80975,0.34925 2.54,0 3.39725,-2.159 h 4.3815 q -0.47625,1.68275 -1.61925,2.95275 -1.143,1.23825 -2.794,1.905 -1.61925,0.6985 -3.52425,0.6985 -2.413,0 -4.191,-1.04775 -1.778,-1.0795 -2.7305,-3.07975 -0.92075,-2.00025 -0.92075,-4.73075 0,-4.318 2.12725,-6.7945 2.12725,-2.50825 5.81025,-2.50825 z m 3.39725,7.3025 q -0.15875,-1.87325 -1.04775,-2.88925 -0.85725,-1.016 -2.413,-1.016 -2.921,0 -3.3655,3.90525 z"
         style="font-style:normal;font-variant:normal;font-weight:600;font-stretch:normal;font-size:31.75px;font-family:FreeSans;-inkscape-font-specification:'FreeSans Semi-Bold';fill:#666666;fill-opacity:1"
         id="path896" />
      <path
         d="m 190.3547,31.153172 v 4.6355 h -4.7625 v -4.6355 z"
         style="font-style:normal;font-variant:normal;font-weight:600;font-stretch:normal;font-size:31.75px;font-family:FreeSans;-inkscape-font-specification:'FreeSans Semi-Bold';fill:#666666;fill-opacity:1"
         id="path898" />
      <path
         d="m 194.48215,35.788672 v -23.14575 h 9.04875 q 2.667,0 4.3815,0.635 1.74625,0.635 2.921,2.032 2.82575,3.3655 2.82575,8.89 0,5.588 -2.82575,8.89 -0.381,0.47625 -0.8255,0.85725 -0.4445,0.381 -0.98425,0.6985 -0.508,0.28575 -1.11125,0.508 -0.5715,0.22225 -1.27,0.381 -0.6985,0.127 -1.4605,0.1905 -0.762,0.0635 -1.651,0.0635 z m 4.7625,-3.96875 h 4.28625 q 5.36575,0 5.36575,-7.58825 0,-7.62 -5.36575,-7.62 h -4.28625 z"
         style="font-style:normal;font-variant:normal;font-weight:600;font-stretch:normal;font-size:31.75px;font-family:FreeSans;-inkscape-font-specification:'FreeSans Semi-Bold';fill:#666666;fill-opacity:1"
         id="path900" />
      <path
         d="m 221.59662,18.643672 v 17.145 h -4.445 v -17.145 z m 0,-6.00075 v 3.96875 h -4.445 v -3.96875 z"
         style="font-style:normal;font-variant:normal;font-weight:600;font-stretch:normal;font-size:31.75px;font-family:FreeSans;-inkscape-font-specification:'FreeSans Semi-Bold';fill:#666666;fill-opacity:1"
         id="path902" />
      <path
         d="m 236.96358,18.643672 h 4.22275 v 17.7165 q 0,3.01625 -2.159,4.66725 -2.12725,1.68275 -6.00075,1.68275 -3.429,0 -5.49275,-1.3335 -2.06375,-1.30175 -2.0955,-3.52425 h 4.60375 q 0.53975,2.00025 3.14325,2.00025 1.68275,0 2.7305,-0.98425 1.04775,-0.9525 1.04775,-2.50825 v -2.31775 q -1.23825,1.397 -2.31775,1.93675 -1.04775,0.53975 -2.54,0.53975 -3.175,0 -5.11175,-2.44475 -1.905,-2.44475 -1.905,-6.44525 0,-3.96875 2.032,-6.604 2.032,-2.667 5.08,-2.667 2.8575,0 4.7625,2.921 z m -3.81,3.429 q -1.61925,0 -2.63525,1.524 -0.98425,1.524 -0.98425,3.96875 0,2.31775 0.98425,3.77825 0.98425,1.4605 2.57175,1.4605 1.74625,0 2.82575,-1.4605 1.11125,-1.4605 1.11125,-3.77825 0,-2.38125 -1.11125,-3.937 -1.0795,-1.55575 -2.76225,-1.55575 z"
         style="font-style:normal;font-variant:normal;font-weight:600;font-stretch:normal;font-size:31.75px;font-family:FreeSans;-inkscape-font-specification:'FreeSans Semi-Bold';fill:#666666;fill-opacity:1"
         id="path904" />
      <path
         d="m 249.91756,18.643672 v 17.145 h -4.445 v -17.145 z m 0,-6.00075 v 3.96875 h -4.445 v -3.96875 z"
         style="font-style:normal;font-variant:normal;font-weight:600;font-stretch:normal;font-size:31.75px;font-family:FreeSans;-inkscape-font-specification:'FreeSans Semi-Bold';fill:#666666;fill-opacity:1"
         id="path906" />
      <path
         d="m 261.91903,18.992922 v 2.95275 h -2.4765 v 9.3345 q 0,1.143 0.28575,1.524 0.28575,0.34925 1.17475,0.34925 0.34925,0 1.016,-0.09525 v 3.1115 q -1.0795,0.34925 -2.57175,0.34925 -2.19075,0 -3.27025,-0.98425 -1.0795,-1.016 -1.0795,-3.048 v -10.541 h -2.19075 v -2.95275 h 2.19075 v -4.60375 h 4.445 v 4.60375 z"
         style="font-style:normal;font-variant:normal;font-weight:600;font-stretch:normal;font-size:31.75px;font-family:FreeSans;-inkscape-font-specification:'FreeSans Semi-Bold';fill:#666666;fill-opacity:1"
         id="path908" />
      <path
         d="m 269.34849,36.518922 q -2.3495,0 -3.77825,-1.397 -1.42875,-1.42875 -1.42875,-3.7465 0,-4.54025 5.04825,-5.3975 l 1.778,-0.3175 q 0.0635,0 0.635,-0.0635 0.5715,-0.09525 0.73025,-0.127 0.15875,-0.0635 0.60325,-0.15875 0.47625,-0.09525 0.66675,-0.22225 0.1905,-0.127 0.4445,-0.3175 0.28575,-0.22225 0.381,-0.47625 0.0952,-0.28575 0.0952,-0.635 0,-1.7145 -2.57175,-1.7145 -1.651,0 -2.31775,0.508 -0.66675,0.508 -0.8255,1.8415 h -4.28625 q 0.41275,-5.93725 7.33425,-5.93725 7.01675,0 7.01675,5.2705 v 9.525 q 0,1.17475 1.016,2.0955 v 0.53975 h -4.826 q -0.508,-0.635 -0.508,-1.7145 -1.17475,1.2065 -2.4765,1.80975 -1.30175,0.635 -2.7305,0.635 z m 5.17525,-7.62 v -1.2065 q -0.60325,0.28575 -1.87325,0.53975 l -1.524,0.28575 q -1.397,0.28575 -1.9685,0.8255 -0.5715,0.53975 -0.5715,1.524 0,0.9525 0.635,1.524 0.66675,0.53975 1.778,0.53975 1.68275,0 2.6035,-1.04775 0.92075,-1.04775 0.92075,-2.9845 z"
         style="font-style:normal;font-variant:normal;font-weight:600;font-stretch:normal;font-size:31.75px;font-family:FreeSans;-inkscape-font-specification:'FreeSans Semi-Bold';fill:#666666;fill-opacity:1"
         id="path910" />
      <path
         d="m 287.35076,12.642922 v 23.14575 h -4.445 v -23.14575 z"
         style="font-style:normal;font-variant:normal;font-weight:600;font-stretch:normal;font-size:31.75px;font-family:FreeSans;-inkscape-font-specification:'FreeSans Semi-Bold';fill:#666666;fill-opacity:1"
         id="path912" />
    </g>
    <g
       inkscape:label="Layer 1"
       id="layer1-3"
       transform="matrix(0.72816242,0,0,0.72816242,225.74689,1.8518129e-6)">
      <rect
         style="fill:url(#linearGradient160);fill-opacity:1;stroke-width:0.264127"
         id="rect142"
         width="132.29167"
         height="132.29167"
         x="-2.5431316e-06"
         y="-2.5431316e-06"
         ry="13.857664" />
      <g
         transform="matrix(0.08294559,0,0,0.08294559,24.673038,-60.628206)"
         id="g891">
        <path
           d="m 71.428569,1076.019 v 476.1905 c 0,200 172.961901,380.9524 428.571431,476.1905 255.61905,-95.2381 428.57143,-276.1905 428.57143,-476.1905 V 1076.019 Z"
           fill="#7f8c8d"
           id="path877"
           style="fill:#bfbf4d;fill-opacity:1;stroke-width:47.619" />
        <path
           d="m 71.428569,1028.4 v 476.1905 c 0,200 172.961901,380.9524 428.571431,476.1905 255.61905,-95.2381 428.57143,-276.1905 428.57143,-476.1905 V 1028.4 Z"
           fill="#bdc3c7"
           id="path879"
           style="fill:#dfdfa5;fill-opacity:1;stroke-width:47.619" />
        <path
           d="m 71.428569,1028.4 v 476.1905 c 0,200 172.961901,380.9524 428.571431,476.1905 V 1028.4 Z"
           fill="#95a5a6"
           id="path881"
           style="fill:#cbcb70;fill-opacity:1;stroke-width:47.619" />
        <path
           d="m 166.66666,1123.6381 v 380.9524 c 0,161.9047 134.52858,304.7619 333.33334,380.9524 198.80952,-76.1905 333.33333,-219.0477 333.33333,-380.9524 v -380.9524 z"
           fill="#ecf0f1"
           id="path883"
           style="fill:#f6f6e7;fill-opacity:1;stroke-width:47.619" />
        <path
           d="m 166.66666,1504.5905 c 0,161.9047 134.52858,304.7619 333.33334,380.9524 v -380.9524 z"
           fill="#2980b9"
           id="path885"
           style="fill:#29bd29;fill-opacity:1;stroke-width:47.619" />
        <rect
           fill="#3498db"
           height="380.95239"
           width="333.33334"
           x="500"
           y="1123.6381"
           id="rect887"
           style="fill:#2bd92b;fill-opacity:1;stroke-width:47.619" />
        <rect
           fill="#bdc3c7"
           height="380.95239"
           width="333.33334"
           x="166.66667"
           y="1123.6381"
           id="rect889"
           style="fill:#dfdfa5;fill-opacity:1;stroke-width:47.619" />
      </g>
    </g>
  </g>
</svg>
