<?xml version="1.0" standalone="no"?>
<!DOCTYPE svg PUBLIC "-//W3C//DTD SVG 20010904//EN"
 "http://www.w3.org/TR/2001/REC-SVG-20010904/DTD/svg10.dtd">
<svg version="1.0" xmlns="http://www.w3.org/2000/svg"
 width="700.000000pt" height="700.000000pt" viewBox="0 0 700.000000 700.000000"
 preserveAspectRatio="xMidYMid meet">
<metadata>
Created by potrace 1.11, written by Peter Selinger 2001-2013
</metadata>
<g transform="translate(0.000000,700.000000) scale(0.100000,-0.100000)"
fill="#000000" stroke="none">
<path d="M873 4733 c2 -928 7 -1706 10 -1728 4 -22 9 -60 12 -85 34 -270 162
-631 317 -890 89 -148 230 -341 343 -469 67 -76 266 -273 345 -343 115 -101
262 -215 405 -313 266 -183 701 -417 978 -526 28 -11 56 -23 61 -27 6 -4 13
-7 16 -8 6 -1 30 -10 93 -35 l48 -18 135 54 c751 304 1348 704 1805 1211 229
255 423 571 540 881 36 96 92 290 104 361 3 17 8 47 11 65 11 60 13 82 21 177
5 52 8 833 8 1735 l0 1640 -2628 3 -2628 3 4 -1688z"/>
</g>
</svg>
