<?xml version="1.0" encoding="UTF-8" standalone="no"?>
<svg
   xmlns:dc="http://purl.org/dc/elements/1.1/"
   xmlns:cc="http://creativecommons.org/ns#"
   xmlns:rdf="http://www.w3.org/1999/02/22-rdf-syntax-ns#"
   xmlns:svg="http://www.w3.org/2000/svg"
   xmlns="http://www.w3.org/2000/svg"
   xmlns:sodipodi="http://sodipodi.sourceforge.net/DTD/sodipodi-0.dtd"
   xmlns:inkscape="http://www.inkscape.org/namespaces/inkscape"
   height="24"
   version="1.1"
   width="24"
   id="svg893"
   sodipodi:docname="shield (copy).svg"
   inkscape:version="0.92.4 (unknown)">
  <metadata
     id="metadata899">
    <rdf:RDF>
      <cc:Work
         rdf:about="">
        <dc:format>image/svg+xml</dc:format>
        <dc:type
           rdf:resource="http://purl.org/dc/dcmitype/StillImage" />
      </cc:Work>
    </rdf:RDF>
  </metadata>
  <defs
     id="defs897" />
  <sodipodi:namedview
     pagecolor="#ffffff"
     bordercolor="#666666"
     borderopacity="1"
     objecttolerance="10"
     gridtolerance="10"
     guidetolerance="10"
     inkscape:pageopacity="0"
     inkscape:pageshadow="2"
     inkscape:window-width="1920"
     inkscape:window-height="1007"
     id="namedview895"
     showgrid="false"
     inkscape:zoom="6.9532167"
     inkscape:cx="23.564535"
     inkscape:cy="33.534494"
     inkscape:window-x="0"
     inkscape:window-y="73"
     inkscape:window-maximized="0"
     inkscape:current-layer="g891" />
  <g
     transform="translate(0 -1028.4)"
     id="g891">
    <path
       d="m3 1031.4v10c0 4.2 3.6322 8 9 10 5.368-2 9-5.8 9-10v-10h-18z"
       fill="#7f8c8d"
       id="path877"
       style="fill:#bfbf4d;fill-opacity:1" />
    <path
       d="m3 1030.4v10c0 4.2 3.6322 8 9 10 5.368-2 9-5.8 9-10v-10h-18z"
       fill="#bdc3c7"
       id="path879"
       style="fill:#dfdfa5;fill-opacity:1" />
    <path
       d="m3 1030.4v10c0 4.2 3.6322 8 9 10v-20h-9z"
       fill="#95a5a6"
       id="path881"
       style="fill:#cbcb70;fill-opacity:1" />
    <path
       d="m5 1032.4v8c0 3.4 2.8251 6.4 7 8 4.175-1.6 7-4.6 7-8v-8h-14z"
       fill="#ecf0f1"
       id="path883"
       style="fill:#f6f6e7;fill-opacity:1" />
    <path
       d="m5 1040.4c0 3.4 2.8251 6.4 7 8v-8h-7z"
       fill="#2980b9"
       id="path885"
       style="fill:#29bd29;fill-opacity:1" />
    <rect
       fill="#3498db"
       height="8"
       transform="translate(0 1028.4)"
       width="7"
       x="12"
       y="4"
       id="rect887"
       style="fill:#2bd92b;fill-opacity:1" />
    <rect
       fill="#bdc3c7"
       height="8"
       transform="translate(0 1028.4)"
       width="7"
       x="5"
       y="4"
       id="rect889"
       style="fill:#dfdfa5;fill-opacity:1" />
  </g>
</svg>
